<svg xmlns="http://www.w3.org/2000/svg" width="1024" height="1024" viewBox="0 0 1024 1024">
<g>
<path d="M 1022.68 154.74 C1023.02,158.73 1023.45,162.00 1023.65,162.00 C1023.84,162.00 1024.00,125.55 1024.00,81.00 L 1024.00 1024.00 L 0.00 1024.00 L 0.00 0.00 L 1024.00 0.00 L 940.25 0.14 C889.72,0.22 859.87,0.60 865.00,1.09 C894.80,3.95 925.33,15.34 950.00,32.78 C962.20,41.40 982.69,61.88 991.01,73.76 C999.39,85.72 1008.01,101.94 1012.56,114.31 C1017.28,127.14 1021.91,145.63 1022.68,154.74 ZM 588.50 760.95 C603.41,761.94 621.36,761.91 631.50,760.88 C653.85,758.61 689.32,749.96 701.27,743.86 C707.83,740.52 719.32,736.01 721.30,736.00 C722.30,736.00 726.16,734.70 729.88,733.12 C740.20,728.73 745.62,728.30 752.69,731.31 C758.46,733.77 770.99,737.00 774.75,737.00 C778.47,737.00 788.98,730.77 791.12,727.30 C794.55,721.76 803.04,698.76 806.55,685.50 C815.35,652.32 817.54,636.32 814.59,626.89 C813.66,623.93 812.58,619.25 812.20,616.50 C811.50,611.53 811.46,611.48 805.00,608.30 C801.42,606.55 796.34,604.63 793.70,604.05 C787.52,602.70 777.45,602.70 772.99,604.07 C771.07,604.66 764.10,605.27 757.49,605.42 C748.40,605.63 744.65,606.13 742.08,607.46 C740.00,608.53 734.55,609.59 728.09,610.17 C715.63,611.29 708.08,613.04 700.78,616.50 C695.10,619.18 685.29,626.74 683.62,629.70 C682.29,632.06 681.60,640.40 681.82,651.29 C682.00,660.39 680.93,663.73 676.82,666.77 C675.87,667.47 674.51,668.60 673.80,669.27 C673.08,669.95 670.03,671.75 667.00,673.28 C663.97,674.82 660.38,676.71 659.00,677.49 C653.46,680.64 649.23,682.07 635.37,685.52 C614.56,690.68 606.24,692.03 590.94,692.69 C577.37,693.28 553.74,691.34 544.59,688.88 C542.44,688.30 539.96,687.67 539.09,687.48 C528.18,685.09 522.21,683.20 515.50,680.00 C511.10,677.91 503.90,674.97 499.50,673.47 C493.71,671.49 489.02,668.90 482.50,664.06 C477.55,660.39 470.80,655.63 467.50,653.50 C457.71,647.16 449.06,640.06 439.49,630.50 C434.45,625.46 427.51,619.74 423.74,617.52 C420.03,615.32 417.00,612.94 417.00,612.22 C417.00,608.94 403.75,600.00 398.89,600.00 C395.71,600.00 391.00,603.80 391.00,606.37 C391.00,607.17 391.67,611.35 392.50,615.66 C393.32,619.97 394.00,624.79 394.00,626.36 C394.00,627.94 394.87,630.86 395.94,632.86 C398.61,637.88 400.46,642.42 402.86,649.81 C404.38,654.48 406.21,657.47 409.90,661.31 C414.45,666.05 416.71,668.88 421.67,676.00 C424.04,679.40 435.62,693.13 437.77,695.07 C438.72,695.94 441.30,697.94 443.50,699.53 C445.70,701.11 451.33,705.59 456.00,709.48 C470.29,721.38 484.93,730.35 508.00,741.35 C514.32,744.37 542.61,753.23 551.50,754.98 C554.80,755.63 559.30,756.57 561.50,757.06 C570.50,759.10 579.04,760.33 588.50,760.95 ZM 458.15 412.28 C459.59,414.04 460.98,414.83 461.96,414.43 C462.81,414.09 464.08,413.71 464.79,413.59 C465.50,413.47 468.59,411.00 471.67,408.10 C474.75,405.21 478.45,402.32 479.88,401.70 C483.10,400.30 492.01,393.90 493.87,391.65 C494.63,390.74 495.76,390.00 496.38,390.00 C497.54,390.00 498.36,389.27 508.00,379.53 C511.40,376.09 516.27,372.60 520.76,370.37 C524.75,368.38 529.85,365.02 532.10,362.91 C537.38,357.93 543.04,355.32 562.00,349.14 C589.32,340.22 599.60,338.94 628.25,340.89 C647.40,342.19 654.67,343.64 667.90,348.80 C679.37,353.27 686.37,358.98 688.12,365.33 C689.85,371.59 694.51,385.39 695.35,386.76 C697.01,389.44 706.99,394.95 714.50,397.33 C723.50,400.19 747.04,402.16 772.12,402.16 C772.66,402.16 773.18,402.16 773.69,402.16 C780.19,402.17 783.48,402.17 786.49,401.27 C789.81,400.27 792.80,398.18 799.38,393.78 C806.58,388.97 808.04,385.54 808.26,373.01 C808.41,364.41 808.13,362.78 805.29,356.00 C803.57,351.88 801.00,344.04 799.59,338.59 C798.18,333.14 794.62,323.69 791.68,317.59 C786.64,307.13 778.70,295.00 776.89,295.00 C776.44,295.00 774.46,293.59 772.50,291.87 L 768.93 288.73 L 762.21 290.39 C758.52,291.30 750.07,292.53 743.43,293.12 C731.50,294.19 731.20,294.16 718.43,291.01 C711.32,289.26 701.45,286.34 696.50,284.51 C691.55,282.69 684.12,280.70 680.00,280.11 C675.88,279.51 669.12,278.54 665.00,277.95 C660.88,277.36 649.62,276.62 640.00,276.31 C625.03,275.82 620.56,276.05 609.09,277.89 C583.65,281.98 563.09,288.06 546.00,296.55 C539.67,299.69 534.28,302.56 534.00,302.92 C533.72,303.27 529.99,305.35 525.71,307.53 C521.42,309.71 515.12,314.00 511.71,317.05 C508.29,320.10 502.80,324.66 499.50,327.18 C496.20,329.70 491.34,334.17 488.71,337.13 C486.07,340.08 480.83,345.97 477.05,350.21 C473.27,354.45 468.95,360.53 467.44,363.71 C458.55,382.50 458.27,383.31 457.59,392.50 C457.22,397.45 456.68,403.30 456.40,405.50 C455.99,408.66 456.36,410.08 458.15,412.28 ZM 300.00 599.99 C300.00,600.70 306.59,600.95 320.20,600.77 L 340.41 600.50 L 347.19 583.50 C350.92,574.15 354.69,564.36 355.57,561.75 L 357.16 557.00 L 442.67 557.00 L 451.20 578.75 L 459.72 600.50 L 480.48 600.77 C496.95,600.99 501.12,600.78 500.71,599.77 C500.42,599.07 495.91,587.92 490.67,575.00 C485.44,562.08 478.84,545.88 476.02,539.00 C470.51,525.58 442.23,455.81 429.51,424.25 L 421.75 405.00 L 378.48 405.00 L 372.81 419.25 C367.99,431.33 346.78,483.70 308.41,578.22 C303.78,589.62 300.00,599.41 300.00,599.99 ZM 536.67 653.33 C536.98,653.65 537.24,653.91 537.56,654.05 C539.39,654.83 543.05,651.34 568.16,627.34 L 568.50 627.01 C573.45,622.28 588.75,607.86 602.50,594.96 C616.25,582.06 632.23,567.00 638.00,561.50 C659.00,541.51 680.65,521.13 685.27,517.00 C687.87,514.67 690.00,512.44 690.00,512.05 C690.00,511.66 675.94,498.10 658.76,481.92 C641.58,465.74 623.47,448.67 618.52,444.00 C613.57,439.33 605.93,432.12 601.53,428.00 C597.13,423.88 589.93,417.09 585.52,412.92 C544.17,373.81 541.02,371.00 538.54,371.00 L 536.00 371.00 L 536.00 421.50 L 555.25 439.41 C584.82,466.92 631.00,511.15 631.00,511.95 C631.00,512.67 600.83,541.52 558.25,581.53 L 536.00 602.44 L 536.00 627.55 C536.00,641.36 536.30,652.97 536.67,653.33 ZM 726.92 593.25 C728.70,596.41 730.71,599.00 731.40,599.00 C733.46,599.00 750.65,593.07 759.37,589.35 C775.91,582.30 793.82,571.70 806.64,561.38 L 810.78 558.05 L 814.64 561.16 C823.39,568.23 840.30,578.68 852.50,584.57 C864.36,590.30 887.31,599.00 890.56,599.00 C891.29,599.00 893.52,595.89 895.52,592.09 C897.52,588.29 900.75,583.32 902.69,581.04 C904.64,578.77 906.07,576.76 905.87,576.57 C905.67,576.39 901.22,575.03 896.00,573.54 C882.51,569.69 869.08,564.54 857.50,558.75 C847.00,553.50 830.00,542.44 830.00,540.86 C830.00,540.35 832.86,536.46 836.35,532.22 C850.57,514.95 861.69,495.13 869.01,474.00 L 873.00 462.50 L 904.50 462.50 L 905.06 438.50 L 864.03 438.84 L 823.00 439.17 L 823.00 409.00 L 796.85 409.00 L 797.55 421.41 C797.94,428.24 797.96,435.03 797.59,436.49 L 796.92 439.16 L 757.46 438.83 L 718.00 438.50 L 718.00 462.50 L 782.12 462.20 L 846.24 461.89 L 845.55 464.70 C844.11,470.56 835.64,489.26 830.90,497.07 C825.40,506.13 816.35,518.47 812.98,521.52 L 810.78 523.50 L 806.31 518.56 C800.45,512.09 790.30,497.35 785.45,488.25 L 781.58 481.00 L 755.11 481.00 L 757.49 486.38 C763.63,500.27 776.17,520.64 786.44,533.43 C789.50,537.24 792.00,540.63 792.00,540.96 C792.00,543.02 769.87,556.86 756.91,562.90 C747.78,567.16 730.89,572.99 721.74,575.03 C718.58,575.74 716.00,576.49 716.00,576.70 C716.00,576.91 717.73,579.43 719.85,582.29 C721.97,585.16 725.15,590.09 726.92,593.25 ZM 252.71 646.31 C258.13,651.36 261.44,653.77 262.46,653.38 C263.79,652.87 264.00,649.35 264.00,627.58 L 264.00 602.37 L 254.75 593.43 C244.33,583.37 201.11,542.54 181.75,524.47 C174.74,517.92 169.00,512.26 169.00,511.89 C169.00,511.51 170.69,509.74 172.75,507.96 C174.81,506.17 188.43,493.41 203.00,479.59 C217.57,465.77 237.26,447.12 246.75,438.15 L 264.00 421.82 L 264.00 371.00 L 261.75 371.05 C261.59,371.05 261.45,371.05 261.31,371.06 C259.21,371.20 257.23,373.09 220.85,407.44 C206.91,420.61 180.44,445.59 162.04,462.94 C158.52,466.26 155.25,469.35 152.19,472.23 C114.48,507.78 110.64,511.40 111.32,512.78 C111.46,513.05 111.76,513.23 112.02,513.55 C112.83,514.54 132.62,533.34 156.00,555.32 C179.38,577.30 208.85,605.05 221.50,616.97 C234.15,628.90 248.19,642.10 252.71,646.31 ZM 0.13 84.25 C0.22,137.60 0.58,165.38 1.12,160.00 C2.30,148.21 5.53,132.81 9.11,121.79 C13.27,109.00 24.67,86.42 32.72,75.00 C41.37,62.74 62.74,41.37 75.00,32.72 C85.80,25.11 108.78,13.36 120.14,9.65 C130.96,6.11 148.95,2.24 159.50,1.18 C165.60,0.56 141.38,0.23 84.25,0.13 L 0.00 0.00 ZM 0.10 958.25 L 0.00 1024.00 L 63.75 1023.85 C98.81,1023.77 126.15,1023.53 124.50,1023.32 C93.53,1019.44 63.87,1004.85 41.51,982.49 C19.41,960.39 5.72,932.88 1.52,902.14 C0.34,893.51 0.20,899.41 0.10,958.25 ZM 906.00 1022.46 C898.38,1023.67 904.02,1023.82 960.75,1023.90 L 1024.00 1024.00 L 1023.90 960.75 C1023.82,904.02 1023.67,898.38 1022.46,906.00 C1018.52,930.91 1007.38,954.94 990.52,974.89 C969.76,999.45 937.82,1017.43 906.00,1022.46 ZM 429.18 523.48 C428.90,523.77 415.69,524.00 399.83,524.00 C376.29,524.00 371.00,523.75 371.00,522.65 C371.00,521.91 374.75,511.44 379.33,499.40 C383.91,487.35 390.32,470.20 393.58,461.27 C396.84,452.34 399.73,445.04 400.00,445.03 C400.79,445.03 429.76,522.91 429.18,523.48 ZM 965.31 987.25 C966.51,989.86 967.77,992.00 968.11,992.00 C968.45,992.00 969.54,989.86 970.54,987.25 C972.83,981.22 981.31,972.81 987.43,970.47 C989.95,969.51 992.00,968.40 992.00,968.00 C992.00,967.60 989.80,966.35 987.12,965.24 C980.31,962.41 974.74,957.02 971.37,950.01 C969.79,946.72 968.22,944.02 967.89,944.01 C967.55,944.01 966.52,945.96 965.61,948.35 C963.14,954.81 957.86,960.34 950.53,964.13 C946.94,965.98 944.01,967.76 944.00,968.07 C944.00,968.39 946.70,969.90 950.00,971.42 C956.74,974.53 961.93,979.90 965.31,987.25 Z" fill="rgb(11,29,52)"/>
<path d="M 458.15 412.28 C456.36,410.08 455.99,408.66 456.40,405.50 C456.68,403.30 457.22,397.45 457.59,392.50 C458.27,383.31 458.55,382.50 467.44,363.71 C468.95,360.53 473.27,354.45 477.05,350.21 C480.83,345.97 486.07,340.08 488.71,337.13 C491.34,334.17 496.20,329.70 499.50,327.18 C502.80,324.66 508.29,320.10 511.71,317.05 C515.12,314.00 521.42,309.71 525.71,307.53 C529.99,305.35 533.72,303.27 534.00,302.92 C534.28,302.56 539.67,299.69 546.00,296.55 C563.09,288.06 583.65,281.98 609.09,277.89 C620.56,276.05 625.03,275.82 640.00,276.31 C649.62,276.62 660.88,277.36 665.00,277.95 C669.12,278.54 675.88,279.51 680.00,280.11 C684.12,280.70 691.55,282.69 696.50,284.51 C701.45,286.34 711.32,289.26 718.43,291.01 C731.20,294.16 731.50,294.19 743.43,293.12 C750.07,292.53 758.52,291.30 762.21,290.39 L 768.93 288.73 L 772.50 291.87 C774.46,293.59 776.44,295.00 776.89,295.00 C778.70,295.00 786.64,307.13 791.68,317.59 C794.62,323.69 798.18,333.14 799.59,338.59 C801.00,344.04 803.57,351.88 805.29,356.00 C808.13,362.78 808.41,364.41 808.26,373.01 C808.04,385.54 806.58,388.97 799.38,393.78 C792.80,398.18 789.81,400.27 786.49,401.27 C783.48,402.17 780.19,402.17 773.69,402.16 C773.18,402.16 772.66,402.16 772.12,402.16 C747.04,402.16 723.50,400.19 714.50,397.33 C706.99,394.95 697.01,389.44 695.35,386.76 C694.51,385.39 689.85,371.59 688.12,365.33 C686.37,358.98 679.37,353.27 667.90,348.80 C654.67,343.64 647.40,342.19 628.25,340.89 C599.60,338.94 589.32,340.22 562.00,349.14 C543.04,355.32 537.38,357.93 532.10,362.91 C529.85,365.02 524.75,368.38 520.76,370.37 C516.27,372.60 511.40,376.09 508.00,379.53 C498.36,389.27 497.54,390.00 496.38,390.00 C495.76,390.00 494.63,390.74 493.87,391.65 C492.01,393.90 483.10,400.30 479.88,401.70 C478.45,402.32 474.75,405.21 471.67,408.10 C468.59,411.00 465.50,413.47 464.79,413.59 C464.08,413.71 462.81,414.09 461.96,414.43 C460.98,414.83 459.59,414.04 458.15,412.28 ZM 588.50 760.95 C579.04,760.33 570.50,759.10 561.50,757.06 C559.30,756.57 554.80,755.63 551.50,754.98 C542.61,753.23 514.32,744.37 508.00,741.35 C484.93,730.35 470.29,721.38 456.00,709.48 C451.33,705.59 445.70,701.11 443.50,699.53 C441.30,697.94 438.72,695.94 437.77,695.07 C435.62,693.13 424.04,679.40 421.67,676.00 C416.71,668.88 414.45,666.05 409.90,661.31 C406.21,657.47 404.38,654.48 402.86,649.81 C400.46,642.42 398.61,637.88 395.94,632.86 C394.87,630.86 394.00,627.94 394.00,626.36 C394.00,624.79 393.32,619.97 392.50,615.66 C391.67,611.35 391.00,607.17 391.00,606.37 C391.00,605.04 392.26,603.38 393.92,602.09 C393.12,604.28 394.98,609.00 400.45,619.96 C412.32,643.78 424.96,661.18 444.41,680.51 C482.58,718.42 530.24,740.83 584.50,746.38 C594.15,747.36 633.91,746.12 644.00,744.51 C677.80,739.13 705.70,728.90 735.19,711.07 C741.62,707.18 747.33,704.00 747.88,704.00 C748.43,704.00 755.28,710.98 763.12,719.52 C770.95,728.06 777.66,734.70 778.04,734.27 C778.41,733.85 781.03,724.28 783.85,713.00 C786.67,701.72 793.47,674.97 798.95,653.55 C804.44,632.12 808.79,614.45 808.62,614.28 C808.02,613.69 688.41,630.76 685.68,631.83 C684.15,632.43 685.71,634.60 695.55,645.52 C701.98,652.66 708.42,659.76 709.87,661.31 L 712.49 664.12 L 710.00 666.09 C685.13,685.67 645.03,701.50 609.03,705.95 C596.79,707.47 569.24,707.21 557.00,705.47 C508.89,698.63 466.46,676.96 432.48,641.85 C421.04,630.04 412.63,619.88 405.15,608.85 C400.93,602.62 398.99,600.45 397.03,600.35 C397.67,600.13 398.31,600.00 398.89,600.00 C403.75,600.00 417.00,608.94 417.00,612.22 C417.00,612.94 420.03,615.32 423.74,617.52 C427.51,619.74 434.45,625.46 439.49,630.50 C449.06,640.06 457.71,647.16 467.50,653.50 C470.80,655.63 477.55,660.39 482.50,664.06 C489.02,668.90 493.71,671.49 499.50,673.47 C503.90,674.97 511.10,677.91 515.50,680.00 C522.21,683.20 528.18,685.09 539.09,687.48 C539.96,687.67 542.44,688.30 544.59,688.88 C553.74,691.34 577.37,693.28 590.94,692.69 C606.24,692.03 614.56,690.68 635.37,685.52 C649.23,682.07 653.46,680.64 659.00,677.49 C660.38,676.71 663.97,674.82 667.00,673.28 C670.03,671.75 673.08,669.95 673.80,669.27 C674.51,668.60 675.87,667.47 676.82,666.77 C680.93,663.73 682.00,660.39 681.82,651.29 C681.60,640.40 682.29,632.06 683.62,629.70 C685.29,626.74 695.10,619.18 700.78,616.50 C708.08,613.04 715.63,611.29 728.09,610.17 C734.55,609.59 740.00,608.53 742.08,607.46 C744.65,606.13 748.40,605.63 757.49,605.42 C764.10,605.27 771.07,604.66 772.99,604.07 C777.45,602.70 787.52,602.70 793.70,604.05 C796.34,604.63 801.42,606.55 805.00,608.30 C811.46,611.48 811.50,611.53 812.20,616.50 C812.58,619.25 813.66,623.93 814.59,626.89 C817.54,636.32 815.35,652.32 806.55,685.50 C803.04,698.76 794.55,721.76 791.12,727.30 C788.98,730.77 778.47,737.00 774.75,737.00 C770.99,737.00 758.46,733.77 752.69,731.31 C745.62,728.30 740.20,728.73 729.88,733.12 C726.16,734.70 722.30,736.00 721.30,736.00 C719.32,736.01 707.83,740.52 701.27,743.86 C689.32,749.96 653.85,758.61 631.50,760.88 C621.36,761.91 603.41,761.94 588.50,760.95 ZM 458.67 411.33 C459.03,411.70 460.28,412.00 461.44,412.00 C463.00,412.00 465.72,408.86 471.97,399.86 C499.88,359.68 540.99,333.68 588.24,326.32 C601.67,324.22 628.55,324.00 640.50,325.88 C650.64,327.47 666.32,331.34 676.00,334.63 C686.01,338.03 708.67,349.14 712.84,352.68 L 716.18 355.51 L 708.56 365.51 C704.38,371.00 699.61,377.38 697.98,379.68 L 695.00 383.86 L 700.25 384.44 C703.14,384.76 721.47,385.68 741.00,386.48 C760.53,387.29 782.01,388.23 788.75,388.57 C795.49,388.92 801.00,388.85 801.00,388.43 C801.00,387.68 791.25,359.03 775.21,312.63 L 767.31 289.76 L 762.90 295.27 C760.48,298.31 755.35,304.87 751.50,309.85 C747.65,314.83 744.28,318.79 744.00,318.65 C705.81,298.98 675.08,290.91 638.00,290.82 C614.67,290.76 600.92,292.53 580.50,298.19 C529.37,312.36 488.42,346.36 463.94,394.95 C458.32,406.12 457.13,409.80 458.67,411.33 ZM 965.31 987.25 C961.93,979.90 956.74,974.53 950.00,971.42 C946.70,969.90 944.00,968.39 944.00,968.07 C944.01,967.76 946.94,965.98 950.53,964.13 C957.86,960.34 963.14,954.81 965.61,948.35 C966.52,945.96 967.55,944.01 967.89,944.01 C968.22,944.02 969.79,946.72 971.37,950.01 C974.74,957.02 980.31,962.41 987.12,965.24 C989.80,966.35 992.00,967.60 992.00,968.00 C992.00,968.40 989.95,969.51 987.43,970.47 C981.31,972.81 972.83,981.22 970.54,987.25 C969.54,989.86 968.45,992.00 968.11,992.00 C967.77,992.00 966.51,989.86 965.31,987.25 ZM 0.10 958.25 C0.20,899.41 0.34,893.51 1.52,902.14 C1.81,904.24 2.14,906.33 2.51,908.39 C2.06,906.34 1.61,904.21 1.16,902.00 C0.56,899.07 0.20,919.51 0.12,960.75 L 0.00 1024.00 ZM 893.46 6.33 C911.21,10.99 926.96,17.80 941.57,27.19 C926.79,18.02 910.35,10.92 893.46,6.33 ZM 11.88 939.31 C18.83,955.22 28.77,969.75 41.51,982.49 C45.71,986.69 50.16,990.61 54.83,994.24 C43.28,985.38 33.15,974.90 25.18,963.22 C19.64,955.10 15.39,947.60 11.88,939.31 ZM 147.57 2.96 C151.21,2.23 154.64,1.61 157.50,1.17 C161.14,0.62 139.10,0.27 93.34,0.15 C143.94,0.26 165.27,0.60 159.50,1.18 C156.12,1.52 151.99,2.14 147.57,2.96 ZM 0.14 86.33 C0.23,137.35 0.59,161.36 1.18,157.50 C2.47,149.11 3.80,141.97 5.36,135.44 C3.42,143.73 1.86,152.58 1.12,160.00 C0.59,165.31 0.23,138.32 0.14,86.33 ZM 995.66 80.78 C1000.99,88.93 1005.55,97.48 1009.43,106.63 C1005.73,98.23 1000.80,88.98 995.66,80.78 ZM 867.71 0.74 C866.49,1.00 868.90,1.39 872.50,1.96 C873.08,2.05 873.65,2.15 874.23,2.24 C871.15,1.77 868.07,1.38 865.00,1.09 C863.69,0.96 864.67,0.84 867.71,0.74 ZM 14.40 108.47 C15.81,105.26 17.36,101.97 19.08,98.50 C21.99,92.63 24.81,87.46 27.80,82.65 C23.20,90.32 18.26,99.87 14.40,108.47 ZM 40.58 65.20 C44.08,61.11 47.97,56.95 52.46,52.46 C54.99,49.93 57.83,47.25 60.67,44.65 C53.74,51.06 46.43,58.51 40.58,65.20 ZM 963.52 43.96 C966.38,46.52 969.21,49.19 972.01,52.00 C974.70,54.68 977.27,57.39 979.72,60.13 C974.71,54.68 969.00,48.98 963.52,43.96 ZM 1015.73 123.79 C1016.95,127.68 1018.08,131.68 1019.12,135.79 C1019.72,138.18 1020.32,140.85 1020.85,143.47 C1019.56,137.37 1017.74,130.35 1015.73,123.79 ZM 119.75 9.77 C119.91,9.72 120.07,9.67 120.22,9.62 C120.41,9.56 120.61,9.49 120.82,9.43 C120.59,9.50 120.37,9.57 120.14,9.65 C120.01,9.69 119.89,9.73 119.75,9.77 Z" fill="rgb(29,85,50)"/>
<path d="M 393.92 602.09 C394.88,601.34 395.97,600.72 397.03,600.35 C398.99,600.45 400.93,602.62 405.15,608.85 C412.63,619.88 421.04,630.04 432.48,641.85 C466.46,676.96 508.89,698.63 557.00,705.47 C569.24,707.21 596.79,707.47 609.03,705.95 C645.03,701.50 685.13,685.67 710.00,666.09 L 712.49 664.12 L 709.87 661.31 C708.42,659.76 701.98,652.66 695.55,645.52 C685.71,634.60 684.15,632.43 685.68,631.83 C688.41,630.76 808.02,613.69 808.62,614.28 C808.79,614.45 804.44,632.12 798.95,653.55 C793.47,674.97 786.67,701.72 783.85,713.00 C781.03,724.28 778.41,733.85 778.04,734.27 C777.66,734.70 770.95,728.06 763.12,719.52 C755.28,710.98 748.43,704.00 747.88,704.00 C747.33,704.00 741.62,707.18 735.19,711.07 C705.70,728.90 677.80,739.13 644.00,744.51 C633.91,746.12 594.15,747.36 584.50,746.38 C530.24,740.83 482.58,718.42 444.41,680.51 C424.96,661.18 412.32,643.78 400.45,619.96 C394.98,609.00 393.12,604.28 393.92,602.09 ZM 458.67 411.33 C457.13,409.80 458.32,406.12 463.94,394.95 C488.42,346.36 529.37,312.36 580.50,298.19 C600.92,292.53 614.67,290.76 638.00,290.82 C675.08,290.91 705.81,298.98 744.00,318.65 C744.28,318.79 747.65,314.83 751.50,309.85 C755.35,304.87 760.48,298.31 762.90,295.27 L 767.31 289.76 L 775.21 312.63 C791.25,359.03 801.00,387.68 801.00,388.43 C801.00,388.85 795.49,388.92 788.75,388.57 C782.01,388.23 760.53,387.29 741.00,386.48 C721.47,385.68 703.14,384.76 700.25,384.44 L 695.00 383.86 L 697.98 379.68 C699.61,377.38 704.38,371.00 708.56,365.51 L 716.18 355.51 L 712.84 352.68 C708.67,349.14 686.01,338.03 676.00,334.63 C666.32,331.34 650.64,327.47 640.50,325.88 C628.55,324.00 601.67,324.22 588.24,326.32 C540.99,333.68 499.88,359.68 471.97,399.86 C465.72,408.86 463.00,412.00 461.44,412.00 C460.28,412.00 459.03,411.70 458.67,411.33 Z" fill="rgb(83,251,31)"/>
<path d="M 0.12 960.75 C0.20,919.51 0.56,899.07 1.16,902.00 C6.85,929.96 12.76,945.02 25.18,963.22 C47.07,995.29 85.26,1018.41 124.50,1023.32 C126.15,1023.53 98.81,1023.77 63.75,1023.85 L 0.00 1024.00 L 0.12 960.75 ZM 906.00 1022.46 C937.82,1017.43 969.76,999.45 990.52,974.89 C1007.38,954.94 1018.52,930.91 1022.46,906.00 C1023.67,898.38 1023.82,904.02 1023.90,960.75 L 1024.00 1024.00 L 960.75 1023.90 C904.02,1023.82 898.38,1023.67 906.00,1022.46 ZM 252.71 646.31 C248.19,642.10 234.15,628.90 221.50,616.97 C208.85,605.05 179.38,577.30 156.00,555.32 C132.62,533.34 112.83,514.54 112.02,513.55 C110.32,511.47 106.70,515.14 162.04,462.94 C180.44,445.59 206.91,420.61 220.85,407.44 C259.71,370.75 259.32,371.10 261.75,371.05 L 264.00 371.00 L 264.00 396.41 L 264.00 421.82 L 246.75 438.15 C237.26,447.12 217.57,465.77 203.00,479.59 C188.43,493.41 174.81,506.17 172.75,507.96 C170.69,509.74 169.00,511.51 169.00,511.89 C169.00,512.26 174.74,517.92 181.75,524.47 C201.11,542.54 244.33,583.37 254.75,593.43 L 264.00 602.37 L 264.00 627.58 C264.00,649.35 263.79,652.87 262.46,653.38 C261.44,653.77 258.13,651.36 252.71,646.31 ZM 536.67 653.33 C536.30,652.97 536.00,641.36 536.00,627.55 L 536.00 602.44 L 558.25 581.53 C600.83,541.52 631.00,512.67 631.00,511.95 C631.00,511.15 584.82,466.92 555.25,439.41 L 536.00 421.50 L 536.00 396.25 L 536.00 371.00 L 538.54 371.00 C541.02,371.00 544.17,373.81 585.52,412.92 C589.93,417.09 597.13,423.88 601.53,428.00 C605.93,432.12 613.57,439.33 618.52,444.00 C623.47,448.67 641.58,465.74 658.76,481.92 C675.94,498.10 690.00,511.66 690.00,512.05 C690.00,512.44 687.87,514.67 685.27,517.00 C680.65,521.13 659.00,541.51 638.00,561.50 C632.23,567.00 616.25,582.06 602.50,594.96 C588.75,607.86 573.45,622.28 568.50,627.01 C538.65,655.54 538.77,655.44 536.67,653.33 ZM 300.00 599.99 C300.00,599.41 303.78,589.62 308.41,578.22 C346.78,483.70 367.99,431.33 372.81,419.25 L 378.48 405.00 L 400.12 405.00 L 421.75 405.00 L 429.51 424.25 C442.23,455.81 470.51,525.58 476.02,539.00 C478.84,545.88 485.44,562.08 490.67,575.00 C495.91,587.92 500.42,599.07 500.71,599.77 C501.12,600.78 496.95,600.99 480.48,600.77 L 459.72 600.50 L 451.20 578.75 L 442.67 557.00 L 399.92 557.00 L 357.16 557.00 L 355.57 561.75 C354.69,564.36 350.92,574.15 347.19,583.50 L 340.41 600.50 L 320.20 600.77 C306.59,600.95 300.00,600.70 300.00,599.99 ZM 429.18 523.48 C429.76,522.91 400.79,445.03 400.00,445.03 C399.73,445.04 396.84,452.34 393.58,461.27 C390.32,470.20 383.91,487.35 379.33,499.40 C374.75,511.44 371.00,521.91 371.00,522.65 C371.00,523.75 376.29,524.00 399.83,524.00 C415.69,524.00 428.90,523.77 429.18,523.48 ZM 726.92 593.25 C725.15,590.09 721.97,585.16 719.85,582.29 C717.73,579.43 716.00,576.91 716.00,576.70 C716.00,576.49 718.58,575.74 721.74,575.03 C730.89,572.99 747.78,567.16 756.91,562.90 C769.87,556.86 792.00,543.02 792.00,540.96 C792.00,540.63 789.50,537.24 786.44,533.43 C776.17,520.64 763.63,500.27 757.49,486.38 L 755.11 481.00 L 768.34 481.00 L 781.58 481.00 L 785.45 488.25 C790.30,497.35 800.45,512.09 806.31,518.56 L 810.78 523.50 L 812.98 521.52 C816.35,518.47 825.40,506.13 830.90,497.07 C835.64,489.26 844.11,470.56 845.55,464.70 L 846.24 461.89 L 782.12 462.20 L 718.00 462.50 L 718.00 450.50 L 718.00 438.50 L 757.46 438.83 L 796.92 439.16 L 797.59 436.49 C797.96,435.03 797.94,428.24 797.55,421.41 L 796.85 409.00 L 809.92 409.00 L 823.00 409.00 L 823.00 424.09 L 823.00 439.17 L 864.03 438.84 L 905.06 438.50 L 904.78 450.50 L 904.50 462.50 L 888.75 462.50 L 873.00 462.50 L 869.01 474.00 C861.69,495.13 850.57,514.95 836.35,532.22 C832.86,536.46 830.00,540.35 830.00,540.86 C830.00,542.44 847.00,553.50 857.50,558.75 C869.08,564.54 882.51,569.69 896.00,573.54 C901.22,575.03 905.67,576.39 905.87,576.57 C906.07,576.76 904.64,578.77 902.69,581.04 C900.75,583.32 897.52,588.29 895.52,592.09 C893.52,595.89 891.29,599.00 890.56,599.00 C887.31,599.00 864.36,590.30 852.50,584.57 C840.30,578.68 823.39,568.23 814.64,561.16 L 810.78 558.05 L 806.64 561.38 C793.82,571.70 775.91,582.30 759.37,589.35 C750.65,593.07 733.46,599.00 731.40,599.00 C730.71,599.00 728.70,596.41 726.92,593.25 ZM 0.13 81.75 L 0.00 0.00 L 81.75 0.13 C135.35,0.21 161.43,0.57 157.50,1.17 C146.80,2.80 128.13,7.03 120.22,9.62 C108.78,13.36 85.82,25.09 75.00,32.72 C69.67,36.48 59.78,45.15 52.46,52.46 C36.80,68.12 28.40,79.72 19.08,98.50 C9.34,118.13 5.08,132.16 1.18,157.50 C0.57,161.48 0.21,135.92 0.13,81.75 ZM 1022.68 154.74 C1022.34,150.74 1020.74,142.22 1019.12,135.79 C1010.53,101.81 996.01,75.98 972.01,52.00 C943.84,23.84 913.28,8.48 872.50,1.96 C861.51,0.20 861.55,0.20 942.75,0.10 L 1024.00 0.00 L 1024.00 81.00 C1024.00,125.55 1023.84,162.00 1023.65,162.00 C1023.45,162.00 1023.02,158.73 1022.68,154.74 Z" fill="rgb(253,254,253)"/>
</g>
</svg>